/* XPM */
static char *f4f55e6f1daa4bcfa32b4632a57ad8deh5c7x6Ub7qrgMNYL[] = {
/* columns rows colors chars-per-pixel */
"50 50 3 1 ",
"  c black",
". c #A1BB10",
"X c #8DE369",
/* pixels */
"..................................................",
"..................................................",
"..................................................",
"....................           ...................",
"..................      XXXXXXX    ...............",
"................  XXXXXXXXXXXXXXXXX   ............",
"...............  XXXXXXXXXXXXXXXXXXXXX   .........",
".............  XXXXXXXXXXXXXXXXXXXXXXXXX  ........",
"............. XXXXXXXXXXXXXXXXXXXXXXXXXXX  .......",
"............ XXXXXXXXXXXXXXXXXXXXXXXXXXXXX .......",
"...........  XXXXXXXXXXXXXXXXXXXXXXXXXXXXX  ......",
"........... XXXXX   XXXXXXXXXXXXXXX   XXXXX ......",
"..........  XXXXXXXX   XXXXXXXXXXXX XXXXXXX  .....",
".......... XXXXXXXXXXXXXXXXXXXXXXXXXXXXXXXXX .....",
".........  XXXXXXXXXXXXXXXXXXX  XXXXXXXXXXXX .....",
"......... XXXXXXXXXXXXXXXXXXXXX XXXXXXXXXXXX  ....",
"......... XXXX  XXXXXXXXXXXXXXX XXXXXXXXXXXXX ....",
"........ XXXXXX   XXXXXXXXXXXXXXXXXXXXXXXXXXX ....",
"........ XXXXXXX  XXXXXXXXXXXXXXXXXXXXXXXXXXX ....",
"........ XXXXXXX XXXXXXXXXXXXXXXXXXXXXXXXXXXX ....",
"........ XXXXXXX  XXXXXXXXX XXXXXXXXXXXXXXXXXX ...",
"........ XXXXXXXX XXXXXXX   XXXXXXXXX    XXXXX ...",
"........ XXXXXXXXXXXXXXXXXXXXXXXXXXXXXX XXXXXX ...",
"........ XXXXXXXXXXXXXXXXXXXXXXXXXXXXX  XXXXXX ...",
"........ XXXXXXXXXXXXXXXXXXXXXXXXXXXXX  XXXXXX ...",
"........ XXXXXXXXXXXXXXXXXXXXXXXXXXXXXXXXXXXXX ...",
".......  XXXXXXXXXXXXXXXXXXXXXXXXXXXXXXXXXXXXX ...",
"....... XXXXXXXXXXXXXXXXXXXXXXXXXXXXXXXXXXXXX  ...",
"....... XXXX     XXXXXXXXXXXXXXXXXXXXXXXXXXXX ....",
"....... XXXXXXX  XXXXXXXXXXXXXXXXXXXXXXXXXXXX ....",
".......  XXXXXXXXXXXXXXXXXXXXXXXXXXXXXXXXXXXX ....",
"........ XXXXXXXXXXXXXXXXXXX  XXXXXXXX XXXXXX ....",
"........ XXXXXXXXXXXXXXXXXXX   XXXXXXX XXXXXX ....",
"........ XXXXXXXXXXXXXXXXXXXXXXXXXXXXX XXXXX .....",
".........  XXXXXXXXXXXXXXXXXXXXXXXXXXX  XXXX .....",
"..........  XXXXXXXXXXX XXXXXXXXXXXXXXXXXXXX .....",
"...........   XXXXXXXXX  XXXXXXXXXXXXXXXXXXX .....",
".............   XXXXXXXX XXXXXXXXXXXXXXXXXX  .....",
"...............   XXXXXXXXXXXXXXXXXXXXXXXXX ......",
".................   XXXXXXXXXXXXXXXXXXXXXX  ......",
"...................   XXXXXXXXXXXXXXXXXXXX .......",
"......................   XXXXXXXXXXXXXXXX  .......",
".........................    XXXXXXXXXX  .........",
".............................    XXX    ..........",
".................................    .............",
"..................................................",
"..................................................",
"..................................................",
"..................................................",
".................................................."
};
