/* XPM */
static char *_5e5ff6e3f27439b974b3cf7db52cf9dCd6BmkDCCOq8a1oS[] = {
/* columns rows colors chars-per-pixel */
"50 50 4 1 ",
"  c #990030",
". c #ED1C24",
"X c #FF7E00",
"o c #FFC20E",
/* pixels */
"XXXXXXXXXXXXXXXXXXXXXXXXXXXXXXXXXXXXXXXXXXXXXXXXXX",
"X................................................X",
"X................................................X",
"X................................................X",
"X................................................X",
"X................................................X",
"X................................................X",
"X...........X....................................X",
"X...........oXX..................................X",
"X............ooXX.....................XXX........X",
"X..............ooXX................XXXXoo........X",
"X................oXXX............XXXooo..........X",
"X.................ooXXX......XXXXooo.............X",
"X...................ooXXX.XXXXooo................X",
"X.....................ooX.Xooo...................X",
"X................................................X",
"X.........XXXXXXXXXX........XXXXXXXXX............X",
"X.........X....o   XXX......X....o  XXX..........X",
"X.........X...o.    X.......X...o.   X...........X",
"X......... X.ooo  XX........ X.ooo  XX...........X",
"X......... XXooooX..........  XoooXX.............X",
"X..........  XXXX.............  XXX..............X",
"X............    ...............   ..............X",
"X................................................X",
"X..................XXXXXXXXXXXXX.................X",
"X..............................XXXXXXXX..........X",
"X.....................................X..........X",
"X.....................................X..........X",
"X.....................XXXXXXXXXXXXXXXX ..........X",
"X................XX..XX                ..........X",
"X................  XXX  .........................X",
"X.................      .........................X",
"X................................................X",
"X................................................X",
"X................................................X",
"X................................................X",
"X.................XXXXXXXXXXXXXXX................X",
"X.................               ................X",
"X......................XXXXX.....................X",
"X......................    ......................X",
"X................................................X",
"X................................................X",
"X................................................X",
"X................................................X",
"X................................................X",
"X................................................X",
"X................................................X",
"X................................................X",
"X................................................X",
"XXXXXXXXXXXXXXXXXXXXXXXXXXXXXXXXXXXXXXXXXXXXXXXXXX"
};
