/* XPM */
static char *_e3808d163f846b6e87394ade9c84e32KaNavlEbzUCBz2x4[] = {
/* columns rows colors chars-per-pixel */
"50 50 3 1 ",
"  c black",
". c #683814",
"X c #A1BB10",
/* pixels */
"XXXXXXXXX                            XXXXXXXXXXXXX",
"XXXXXXXXX                              XXXXXXXXXXX",
"XXXXXXXX                                XXXXXXXXXX",
"XXXXXXX                                  XXXXXXXXX",
"XXXXXXX        ......      ....          XXXXXXXXX",
"XXXXXX        .......      ......         XXXXXXXX",
"XXXXXX       ........      .......        XXXXXXXX",
"XXXXX        ........      .........       XXXXXXX",
"XXXXX       .........      .........       XXXXXXX",
"XXXXX       .........      ..........       XXXXXX",
"XXXX       ..........      ..........       XXXXXX",
"XXXX       ..........      ..........       XXXXXX",
"XXXX      ...........      ...........       XXXXX",
"XXXX      ...........      ...........       XXXXX",
"XXX      ............      ............       XXXX",
"XXX      ............      ............       XXXX",
"XXX      ............      .............      XXXX",
"XXX      ............      .............      XXXX",
"XXX      ............      .............      XXXX",
"XXX      ............      ..............      XXX",
"XX       ............      ..............      XXX",
"XX      .............      ..............      XXX",
"XX      .............      ..............      XXX",
"X       .............      ...  .........       XX",
"X      ..........  ..      ...  ..........      XX",
"X      ..........  ..      ..   ..........      XX",
"X      ..........   .      .    ..........       X",
"       ...........  .      .   ............      X",
"      ............  .      .  .............      X",
"      ............  .      .   ............       ",
"      ...........   .      .   .............      ",
"     ............   .      ..   ............      ",
"     ............  ..      ...  ............      ",
"     ................      ..................     ",
"     ................      ..................     ",
"     ................      ..................     ",
"    .................      ..................     ",
"    .................      ..................     ",
"    .................      ..................     ",
"    .................      ...................    ",
"    .................      ...................    ",
"    .................      ...................    ",
"    .................      ...................    ",
"   ..................      ...................    ",
"   ..................      ...................    ",
"   ..................      ...................    ",
"   ..................      ...................    ",
"   ..................      ...................    ",
"   ..................      ...................    ",
"   ..................      ...................    "
};
