/* XPM */
static char *e0de77a542e54441f593881720ccc1f6ZxpExZmvpecx5AjD[] = {
/* columns rows colors chars-per-pixel */
"50 50 14 1 ",
"  c black",
". c #161A52",
"X c #464646",
"o c #00851B",
"O c #22B14C",
"+ c #A8E61D",
"@ c #2F3699",
"# c #546D8E",
"$ c #4D6DF3",
"% c #00B7EF",
"& c #709AD1",
"* c #99D9EA",
"= c #E6E6E6",
"- c white",
/* pixels */
"OOOOOOOOOOOOOOOOOOOOOOOOOOOOOOOOOOOOOOOOOOOOOOOOOO",
"O++++++++++O+++++++++++++++++++++++++++++++++++++O",
"O+++++++++OO++++++++++++++O++++++++O++++++++O++++O",
"O+OOOOOOOOO+++++++++++++OOO+++++++OO++++++OOO++++O",
"O+O+++++++++++++OO++++OOO+++++++OO+++++OOOO++++++O",
"O+O++++++++++OOO+++++OO+++OOOOOO++++++OO++++++O++O",
"O+O+OOOOOOOOOO++++++OO+++OO++++++OOOOO++++++++O++O",
"O++++++++++++++++++OO+++OO+++++++O+++++++OO+++O++O",
"O++OOO++++++++++++++++++O+++++++++++++OOOO%OOOO++O",
"O++O++++++O++++O+++++++++++++OOOOOOOOOO%%%%%%%+++O",
"O++O+OOOOOO%%OOO%%OO++OOOO++OO%%%%%%%%%%%%%%%%O++O",
"O+OO+%%%%%%++%%%OOO%%OO%%%%%%%%%%%%%%%%%%%%%%%O++O",
"O++O%%%%%+OOOOOOO%%%%%%%%%%%%%%%%%%%%%%%%%%%%%OO+O",
"O++O%%%%%O%%%%%%%%%%%%%%%%%%%%%%%%%%%%%%%%%%%%+OOO",
"O++O%%%%%%%%%%%%%oooooo%%%%%%%ooooooo%%%%%%%%%%++O",
"OO+O%%%%%%%%%%%%oo%%%%oo%%%%%oo%%%%%oo%%%%%%%%%++O",
"OO+O%%%%%%%%%%%oo%%%%%%%%%%%%%%%%%%%%oo%%%%%%%%O+O",
"OO++%%%%%%%%%%%%%%***%%%%%%%%%%***%%%%%%%%%%%%%O+O",
"OO+%%%%%%%%%%%%%%*   *%%%%%%%%*   *%%%%%%%%%%%%+O#",
"&%O%%%%%%%%%%%%%&  -  *%%%%%%&  -  *%%%%%%%%%%%O%#",
"&%O%%%%%%%%%%%%%& --- *%%%%%%& --- *%%%%%%%%%%%O%#",
"&%%%%%%%%%%%%%%%& --- *%%%%%%& --- *%%%%%%%%%%%%%#",
"&%%%%%%%%%%%%%%%& -   *%%%%%%& -   *%%%%%%%%%%%%%#",
"&%%%%%%%%%%%%%%%&     *%%%%%%&     *%%%%%%%%%%%%%#",
"&%%%%%%%%%%%%%%%&     *%%%%%%&     *%%%%%%%%%%%%%#",
"&%%%%%%%%%%%%%%%&     *%%%%%%&     *%%%%%%%%%%%%%#",
"&%%%%%%%%%&%&%%%%&&&&&%%@@@%%%&&&&&%%%%%&%&%%%%%%#",
"&%%%%%%%%%%%%%%%%%%%%%@@@%%%%%%%%%%%%%%%%%%%%%%%%#",
"&%%%%%%%%&%&%&%%%%%%%@@%%%%%%%%%%%%%%%%&%&%&%%%%%#",
"&%%%%%%%%%%%%%%%%%%%%@%%%%%%%%%%%%%%@%%%%%%%%%%%%#",
"&%%%%%%%&%&%&%&%%%%%%@%%%%@@%%%%%%%%@@&%&%&%&%%%%#",
"&%%%%%%%%%%%%%%%%%%%%@@@@@$%%%%%%%@@@@@%%%%%%%%%%#",
"&%%%%%%%%%&%&%%%@@%%%%%%%%%%%%%%@@ X@$%%&%&%%%%%%#",
"&%%%%%%%%%%%%%%%@ @@%%%%%%%%%@@@==X=@$%%%%%%%%%%%#",
"&%%%%%%%%%%%%%%%@X-=@@@@@@@@@== -X -@$%%%%%%%%%%%#",
"&%%%%%%%%%%%%%%%@ X- === === -- X= @@$%%%%%%%%%%%#",
"&%%%%%%%%%%%%%%%%@X- --- --- --X-- @$%%%%%%%%%%%%#",
"&%%%%%%%%%%%%%%%%@-XX--- --- -X --@$%%%%%%%%%%%%%#",
"&%%%%%%%%%%%%%%%%@-- XXX XXX X- -@$$%%%%%%%%%%%%%#",
"&%%%%%%%%%%%%%%%%%@- --- --- -- @$%%%%%%%%%%%%%%%#",
"&%%%%%%%%%%%%%%%%%%@ ==- --- --@$%%%%%%%%%%%%%%%%#",
"&%%%%%%%%%%%%%%%%%%%@@=- =-- @@$%%%%%%%%%%%%%%%%%#",
"&%%%%%%%%%%%%%%%%%%%%%@@@@@@@$$%%%%%%%%%%%%%%%%%%#",
"&%%%%%%%%%%%%%%%%%%%%%$$$$$$$$%%%%%%%%%%%%%%%%%%%#",
"&%%%%%%%%%%%%%%%%%%%%%........%%%%%%%%%%%%%%%%%%%#",
"&%%%%%%%%%%%%%%%%%%%%%%%%%%%%%%%%%%%%%%%%%%%%%%%%#",
"&%%%%%%%%%%%%%%%%%%%%%%%%%%%%%%%%%%%%%%%%%%%%%%%%#",
"&%%%%%%%%%%%%%%%%%%%%%%%%%%%%%%%%%%%%%%%%%%%%%%%%#",
"&%%%%%%%%%%%%%%%%%%%%%%%%%%%%%%%%%%%%%%%%%%%%%%%%#",
"&&&&&&&&&&&&&&&&&&&&&&&&&&&&&&&&&&&&&&&&&&&&&&&&&#"
};
