/* XPM */
static char *ac66112993c84c37c427c9623e5ea36aiRQJqk5Zmqpy1I7P[] = {
/* columns rows colors chars-per-pixel */
"50 50 14 1 ",
"  c black",
". c #161A52",
"X c #464646",
"o c #00851B",
"O c #22B14C",
"+ c #A8E61D",
"@ c #2F3699",
"# c #546D8E",
"$ c #4D6DF3",
"% c #00B7EF",
"& c #709AD1",
"* c #99D9EA",
"= c #E6E6E6",
"- c white",
/* pixels */
"OOOOOOOOOOOOOOOOOOOOOOOOOOOOOOOOOOOOOOOOOOOOOOOOOO",
"O+++++++++++++++++++++++++++++++++++++O++++++++++O",
"O++++O++++++++O++++++++O++++++++++++++OO+++++++++O",
"O++++OOO++++++OO+++++++OOO+++++++++++++OOOOOOOOO+O",
"O++++++OOOO+++++OO+++++++OOO++++OO+++++++++++++O+O",
"O++O++++++OO++++++OOOOOO+++OO+++++OOO++++++++++O+O",
"O++O++++++++OOOOO++++++OO+++OO++++++OOOOOOOOOO+O+O",
"O++O+++OO+++++++O+++++++OO+++OO++++++++++++++++++O",
"O++OOOO%OOOO+++++++++++++O++++++++++++++++++OOO++O",
"O+++%%%%%%%OOOOOOOOOO+++++++++++++O++++O++++++O++O",
"O++O%%%%%%%%%%%%%%%%OO++OOOO++OO%%OOO%%OOOOOO+O++O",
"O++O%%%%%%%%%%%%%%%%%%%%%%%OO%%OOO%%%++%%%%%%+OO+O",
"O+OO%%%%%%%%%%%%%%%%%%%%%%%%%%%%%OOOOOOO+%%%%%O++O",
"OOO+%%%%%%%%%%%%%%%%%%%%%%%%%%%%%%%%%%%%O%%%%%O++O",
"O++%%%%%%%%%%ooooooo%%%%%%%oooooo%%%%%%%%%%%%%O++O",
"O++%%%%%%%%%oo%%%%%oo%%%%%oo%%%%oo%%%%%%%%%%%%O+OO",
"O+O%%%%%%%%oo%%%%%%%%%%%%%%%%%%%%oo%%%%%%%%%%%O+OO",
"O+O%%%%%%%%%%%%%***%%%%%%%%%%***%%%%%%%%%%%%%%++OO",
"#O+%%%%%%%%%%%%*   *%%%%%%%%*   *%%%%%%%%%%%%%%+OO",
"#%O%%%%%%%%%%%*  -  &%%%%%%*  -  &%%%%%%%%%%%%%O%&",
"#%O%%%%%%%%%%%* --- &%%%%%%* --- &%%%%%%%%%%%%%O%&",
"#%%%%%%%%%%%%%* --- &%%%%%%* --- &%%%%%%%%%%%%%%%&",
"#%%%%%%%%%%%%%*   - &%%%%%%*   - &%%%%%%%%%%%%%%%&",
"#%%%%%%%%%%%%%*     &%%%%%%*     &%%%%%%%%%%%%%%%&",
"#%%%%%%%%%%%%%*     &%%%%%%*     &%%%%%%%%%%%%%%%&",
"#%%%%%%%%%%%%%*     &%%%%%%*     &%%%%%%%%%%%%%%%&",
"#%%%%%%&%&%%%%%&&&&&%%%@@@%%&&&&&%%%%&%&%%%%%%%%%&",
"#%%%%%%%%%%%%%%%%%%%%%%%%@@@%%%%%%%%%%%%%%%%%%%%%&",
"#%%%%%&%&%&%%%%%%%%%%%%%%%%@@%%%%%%%&%&%&%%%%%%%%&",
"#%%%%%%%%%%%%@%%%%%%%%%%%%%%@%%%%%%%%%%%%%%%%%%%%&",
"#%%%%&%&%&%&@@%%%%%%%%@@%%%%@%%%%%%&%&%&%&%%%%%%%&",
"#%%%%%%%%%%@@@@@%%%%%%%$@@@@@%%%%%%%%%%%%%%%%%%%%&",
"#%%%%%%&%&%%$@X @@%%%%%%%%%%%%%%@@%%%&%&%%%%%%%%%&",
"#%%%%%%%%%%%$@=X==@@@%%%%%%%%%@@ @%%%%%%%%%%%%%%%&",
"#%%%%%%%%%%%$@- X- ==@@@@@@@@@=-X@%%%%%%%%%%%%%%%&",
"#%%%%%%%%%%%$@@ =X -- === === -X @%%%%%%%%%%%%%%%&",
"#%%%%%%%%%%%%$@ --X-- --- --- -X@%%%%%%%%%%%%%%%%&",
"#%%%%%%%%%%%%%$@-- X- --- ---XX-@%%%%%%%%%%%%%%%%&",
"#%%%%%%%%%%%%%$$@- -X XXX XXX --@%%%%%%%%%%%%%%%%&",
"#%%%%%%%%%%%%%%%$@ -- --- --- -@%%%%%%%%%%%%%%%%%&",
"#%%%%%%%%%%%%%%%%$@-- --- -== @%%%%%%%%%%%%%%%%%%&",
"#%%%%%%%%%%%%%%%%%$@@ --= -=@@%%%%%%%%%%%%%%%%%%%&",
"#%%%%%%%%%%%%%%%%%%$$@@@@@@@%%%%%%%%%%%%%%%%%%%%%&",
"#%%%%%%%%%%%%%%%%%%%$$$$$$$$%%%%%%%%%%%%%%%%%%%%%&",
"#%%%%%%%%%%%%%%%%%%%........%%%%%%%%%%%%%%%%%%%%%&",
"#%%%%%%%%%%%%%%%%%%%%%%%%%%%%%%%%%%%%%%%%%%%%%%%%&",
"#%%%%%%%%%%%%%%%%%%%%%%%%%%%%%%%%%%%%%%%%%%%%%%%%&",
"#%%%%%%%%%%%%%%%%%%%%%%%%%%%%%%%%%%%%%%%%%%%%%%%%&",
"#%%%%%%%%%%%%%%%%%%%%%%%%%%%%%%%%%%%%%%%%%%%%%%%%&",
"#&&&&&&&&&&&&&&&&&&&&&&&&&&&&&&&&&&&&&&&&&&&&&&&&&"
};
